<svg xmlns="http://www.w3.org/2000/svg" xmlns:xlink="http://www.w3.org/1999/xlink" width="500" zoomAndPan="magnify" viewBox="0 0 375 374.999991" height="500" preserveAspectRatio="xMidYMid meet" version="1.0"><defs><g/><clipPath id="ea4e0481df"><path d="M 133 144 L 213 144 L 213 234 L 133 234 Z M 133 144 " clip-rule="nonzero"/></clipPath><clipPath id="70e2cb2627"><path d="M 186.78125 144.601562 L 212.554688 164.367188 L 158.675781 234.625 L 132.898438 214.859375 Z M 186.78125 144.601562 " clip-rule="nonzero"/></clipPath><clipPath id="34296e8cfc"><path d="M 186.78125 144.601562 L 212.246094 164.132812 L 158.589844 234.097656 L 133.121094 214.566406 Z M 186.78125 144.601562 " clip-rule="nonzero"/></clipPath><clipPath id="1b5c1758b5"><path d="M 197 73 L 279 73 L 279 186 L 197 186 Z M 197 73 " clip-rule="nonzero"/></clipPath><clipPath id="3f361cd952"><path d="M 276.492188 71.8125 L 281.191406 75.136719 L 202.199219 186.6875 L 197.503906 183.359375 Z M 276.492188 71.8125 " clip-rule="nonzero"/></clipPath><clipPath id="d39622fcd9"><path d="M 278.550781 73.269531 L 201.875 185.914062 L 197.757812 183 L 278.550781 73.269531 " clip-rule="nonzero"/></clipPath><clipPath id="4c21d678be"><path d="M 84 195 L 165 195 L 165 310 L 84 310 Z M 84 195 " clip-rule="nonzero"/></clipPath><clipPath id="3c5132e1a2"><path d="M 87.535156 311.011719 L 81.609375 306.933594 L 159.082031 194.324219 L 165.007812 198.402344 Z M 87.535156 311.011719 " clip-rule="nonzero"/></clipPath><clipPath id="620f2468f2"><path d="M 84.773438 309.113281 L 159.222656 194.984375 L 164.746094 198.785156 L 84.773438 309.113281 " clip-rule="nonzero"/></clipPath><clipPath id="138c032a56"><path d="M 143 142 L 220 142 L 220 239 L 143 239 Z M 143 142 " clip-rule="nonzero"/></clipPath><clipPath id="3bf363dd85"><path d="M 205.324219 142.996094 L 219.734375 153.46875 L 158.128906 238.230469 L 143.722656 227.757812 Z M 205.324219 142.996094 " clip-rule="nonzero"/></clipPath><clipPath id="0ad64993be"><path d="M 205.324219 142.996094 L 219.574219 153.355469 L 158.023438 238.050781 L 143.769531 227.691406 Z M 205.324219 142.996094 " clip-rule="nonzero"/></clipPath></defs><path fill="#004aad" d="M 199.335938 25.953125 C 259.902344 9.1875 294.226562 81.042969 334.605469 129.351562 C 374.984375 177.660156 312.398438 276.695312 263.941406 321.070312 C 215.488281 365.445312 82.238281 359.390625 31.761719 288.796875 C 0.078125 244.484375 13.742188 177.914062 33.796875 129.078125 C 48.738281 92.695312 79.054688 64.820312 116.285156 52.058594 C 140.71875 43.6875 171.121094 33.761719 199.335938 25.953125 Z M 199.335938 25.953125 " fill-opacity="1" fill-rule="nonzero"/><g fill="#000000" fill-opacity="1"><g transform="translate(189.842852, 157.169206)"><g/></g></g><g fill="#ffffff" fill-opacity="1"><g transform="translate(146.630844, 291.284474)"><g><path d="M 87.078125 -65.75 C 93.160156 -63.207031 98.09375 -59.414062 101.875 -54.375 C 105.664062 -49.332031 107.492188 -42.882812 107.359375 -35.03125 C 107.109375 -21.269531 103 -11.738281 95.03125 -6.4375 C 87.070312 -1.144531 77.65625 1.398438 66.78125 1.203125 L 23.59375 0.421875 C 20.582031 0.367188 18.082031 -0.6875 16.09375 -2.75 C 14.113281 -4.8125 13.148438 -7.34375 13.203125 -10.34375 L 15.015625 -110.609375 C 15.066406 -113.617188 16.117188 -116.117188 18.171875 -118.109375 C 20.234375 -120.097656 22.769531 -121.066406 25.78125 -121.015625 L 69.484375 -120.21875 C 91.460938 -119.820312 102.265625 -109.328125 101.890625 -88.734375 C 101.796875 -83.535156 100.472656 -78.960938 97.921875 -75.015625 C 95.367188 -71.066406 91.753906 -67.976562 87.078125 -65.75 Z M 79.28125 -85.328125 C 79.363281 -90.066406 78.238281 -93.644531 75.90625 -96.0625 C 73.570312 -98.488281 70.265625 -99.738281 65.984375 -99.8125 L 37.375 -100.328125 L 36.890625 -73.25 L 66.03125 -72.71875 C 69.5 -72.65625 72.554688 -73.753906 75.203125 -76.015625 C 77.847656 -78.285156 79.207031 -81.390625 79.28125 -85.328125 Z M 67.140625 -18.75 C 72.578125 -18.65625 76.851562 -20.023438 79.96875 -22.859375 C 83.082031 -25.691406 84.691406 -29.882812 84.796875 -35.4375 C 84.910156 -42.25 83.195312 -46.726562 79.65625 -48.875 C 76.113281 -51.019531 71.738281 -52.140625 66.53125 -52.234375 L 36.53125 -52.78125 L 35.921875 -19.3125 Z M 67.140625 -18.75 "/></g></g></g><g clip-path="url(#ea4e0481df)"><g clip-path="url(#70e2cb2627)"><g clip-path="url(#34296e8cfc)"><path fill="#004aad" d="M 186.78125 144.601562 L 212.140625 164.050781 L 158.578125 233.890625 L 133.21875 214.441406 Z M 186.78125 144.601562 " fill-opacity="1" fill-rule="nonzero"/></g></g></g><g clip-path="url(#1b5c1758b5)"><g clip-path="url(#3f361cd952)"><g clip-path="url(#d39622fcd9)"><path fill="#ffffff" d="M 276.492188 71.8125 L 280.601562 74.722656 L 202.027344 185.683594 L 197.917969 182.773438 Z M 276.492188 71.8125 " fill-opacity="1" fill-rule="nonzero"/></g></g></g><g clip-path="url(#4c21d678be)"><g clip-path="url(#3c5132e1a2)"><g clip-path="url(#620f2468f2)"><path fill="#ffffff" d="M 87.535156 311.011719 L 82.203125 307.34375 L 159.265625 195.328125 L 164.601562 198.996094 Z M 87.535156 311.011719 " fill-opacity="1" fill-rule="nonzero"/></g></g></g><g fill="#ffffff" fill-opacity="1"><g transform="translate(95.928193, 210.056236)"><g><path d="M 54.375 1.765625 C 46.21875 1.765625 38.925781 0.710938 32.5 -1.390625 C 26.082031 -3.503906 20.734375 -6.273438 16.453125 -9.703125 C 12.179688 -13.140625 8.945312 -16.914062 6.75 -21.03125 L 17.390625 -34.03125 L 19.5 -34.03125 C 23.269531 -28.113281 28.054688 -23.519531 33.859375 -20.25 C 39.660156 -16.988281 46.5 -15.359375 54.375 -15.359375 C 62.257812 -15.359375 68.171875 -17.019531 72.109375 -20.34375 C 76.046875 -23.664062 78.015625 -28.253906 78.015625 -34.109375 C 78.015625 -37.597656 77.367188 -40.535156 76.078125 -42.921875 C 74.785156 -45.316406 72.660156 -47.375 69.703125 -49.09375 C 66.742188 -50.8125 62.734375 -52.289062 57.671875 -53.53125 L 42.5625 -57.078125 C 31.632812 -59.671875 23.539062 -63.847656 18.28125 -69.609375 C 13.019531 -75.378906 10.390625 -82.769531 10.390625 -91.78125 C 10.390625 -98.363281 12.046875 -104.171875 15.359375 -109.203125 C 18.679688 -114.242188 23.535156 -118.171875 29.921875 -120.984375 C 36.316406 -123.804688 43.929688 -125.21875 52.765625 -125.21875 C 62.171875 -125.21875 70.164062 -123.953125 76.75 -121.421875 C 83.332031 -118.890625 88.738281 -115.003906 92.96875 -109.765625 L 83.421875 -96.671875 L 81.3125 -96.671875 C 77.757812 -100.671875 73.644531 -103.640625 68.96875 -105.578125 C 64.300781 -107.523438 58.898438 -108.5 52.765625 -108.5 C 45.109375 -108.5 39.320312 -107.078125 35.40625 -104.234375 C 31.5 -101.390625 29.546875 -97.460938 29.546875 -92.453125 C 29.546875 -87.722656 30.953125 -83.960938 33.765625 -81.171875 C 36.585938 -78.390625 41.40625 -76.210938 48.21875 -74.640625 L 63.75 -71.171875 C 75.738281 -68.472656 84.421875 -64.15625 89.796875 -58.21875 C 95.171875 -52.28125 97.859375 -44.609375 97.859375 -35.203125 C 97.859375 -27.890625 96.238281 -21.445312 93 -15.875 C 89.769531 -10.300781 84.898438 -5.96875 78.390625 -2.875 C 71.890625 0.21875 63.882812 1.765625 54.375 1.765625 Z M 54.375 1.765625 "/></g></g></g><g clip-path="url(#138c032a56)"><g clip-path="url(#3bf363dd85)"><g clip-path="url(#0ad64993be)"><path fill="#004aad" d="M 205.324219 142.996094 L 219.734375 153.46875 L 158.128906 238.230469 L 143.722656 227.757812 Z M 205.324219 142.996094 " fill-opacity="1" fill-rule="nonzero"/></g></g></g></svg>
