<svg xmlns="http://www.w3.org/2000/svg" xmlns:xlink="http://www.w3.org/1999/xlink" width="500" zoomAndPan="magnify" viewBox="0 0 375 374.999991" height="500" preserveAspectRatio="xMidYMid meet" version="1.0"><defs><g/><clipPath id="d37d80d210"><path d="M 6.101562 6.101562 L 368.898438 6.101562 L 368.898438 368.898438 L 6.101562 368.898438 Z M 6.101562 6.101562 " clip-rule="nonzero"/></clipPath><clipPath id="127ae8568e"><path d="M 187.5 368.898438 C 139.070312 368.898438 93.464844 350.046875 59.246094 315.753906 C 24.953125 281.535156 6.101562 235.929688 6.101562 187.5 C 6.101562 139.070312 24.953125 93.464844 59.246094 59.246094 C 93.464844 24.953125 139.070312 6.101562 187.5 6.101562 C 235.929688 6.101562 281.535156 24.953125 315.753906 59.246094 C 350.046875 93.539062 368.898438 139.070312 368.898438 187.5 C 368.898438 235.929688 350.046875 281.535156 315.753906 315.753906 C 281.535156 350.046875 235.929688 368.898438 187.5 368.898438 Z M 187.5 16.976562 C 141.96875 16.976562 99.121094 34.742188 66.929688 66.929688 C 34.742188 99.121094 16.976562 141.96875 16.976562 187.5 C 16.976562 233.03125 34.742188 275.878906 66.929688 308.070312 C 99.121094 340.257812 141.96875 358.023438 187.5 358.023438 C 233.03125 358.023438 275.878906 340.257812 308.070312 308.070312 C 340.257812 275.878906 358.023438 233.03125 358.023438 187.5 C 358.023438 141.96875 340.257812 99.121094 308.070312 66.929688 C 275.878906 34.742188 233.03125 16.976562 187.5 16.976562 Z M 187.5 16.976562 " clip-rule="nonzero"/></clipPath></defs><g clip-path="url(#d37d80d210)"><g clip-path="url(#127ae8568e)"><path fill="#004aad" d="M 6.101562 6.101562 L 368.898438 6.101562 L 368.898438 368.898438 L 6.101562 368.898438 Z M 6.101562 6.101562 " fill-opacity="1" fill-rule="nonzero"/></g></g><g fill="#004aad" fill-opacity="1"><g transform="translate(71.654489, 229.930457)"><g><path d="M 57.671875 -68.65625 C 57.054688 -71.382812 55.773438 -73.609375 53.828125 -75.328125 C 51.890625 -77.046875 49.617188 -78.320312 47.015625 -79.15625 C 44.421875 -80 41.800781 -80.421875 39.15625 -80.421875 C 35.976562 -80.421875 32.800781 -79.867188 29.625 -78.765625 C 26.457031 -77.671875 23.898438 -75.890625 21.953125 -73.421875 C 21.160156 -72.453125 20.585938 -71.328125 20.234375 -70.046875 C 19.878906 -68.765625 19.703125 -67.460938 19.703125 -66.140625 C 19.703125 -62.609375 20.738281 -59.960938 22.8125 -58.203125 C 24.882812 -56.441406 27.53125 -55.25 30.75 -54.625 C 33.96875 -54.007812 37.300781 -53.523438 40.75 -53.171875 C 43.914062 -52.816406 47.175781 -52.265625 50.53125 -51.515625 C 53.882812 -50.773438 57.082031 -49.695312 60.125 -48.28125 C 63.164062 -46.875 65.8125 -44.976562 68.0625 -42.59375 C 70.3125 -40.207031 71.875 -37.164062 72.75 -33.46875 C 73.195312 -31.257812 73.421875 -29.226562 73.421875 -27.375 C 73.421875 -22.882812 72.425781 -18.894531 70.4375 -15.40625 C 68.457031 -11.925781 65.8125 -8.972656 62.5 -6.546875 C 59.195312 -4.117188 55.492188 -2.285156 51.390625 -1.046875 C 47.285156 0.179688 43.160156 0.796875 39.015625 0.796875 C 35.492188 0.796875 31.859375 0.269531 28.109375 -0.78125 C 24.359375 -1.84375 20.875 -3.410156 17.65625 -5.484375 C 14.4375 -7.554688 11.742188 -10.15625 9.578125 -13.28125 C 7.421875 -16.414062 6.125 -20.054688 5.6875 -24.203125 L 5.5625 -26.71875 L 19.046875 -26.984375 L 19.1875 -25 L 19.1875 -25.53125 C 19.53125 -22.707031 20.738281 -20.300781 22.8125 -18.3125 C 24.882812 -16.332031 27.421875 -14.859375 30.421875 -13.890625 C 33.421875 -12.921875 36.332031 -12.4375 39.15625 -12.4375 C 42.507812 -12.4375 45.769531 -13.03125 48.9375 -14.21875 C 52.113281 -15.40625 54.738281 -17.125 56.8125 -19.375 C 58.882812 -21.625 59.921875 -24.335938 59.921875 -27.515625 C 59.921875 -28.484375 59.789062 -29.539062 59.53125 -30.6875 C 59 -33.070312 57.695312 -34.859375 55.625 -36.046875 C 53.550781 -37.234375 51.054688 -38.09375 48.140625 -38.625 C 45.234375 -39.15625 42.238281 -39.550781 39.15625 -39.8125 C 35.539062 -40.164062 31.878906 -40.71875 28.171875 -41.46875 C 24.472656 -42.21875 21.035156 -43.429688 17.859375 -45.109375 C 14.679688 -46.785156 12.054688 -49.097656 9.984375 -52.046875 C 7.910156 -55.003906 6.695312 -58.910156 6.34375 -63.765625 L 6.34375 -63.625 C 6.34375 -64.0625 6.320312 -64.457031 6.28125 -64.8125 C 6.238281 -65.164062 6.21875 -65.519531 6.21875 -65.875 C 6.21875 -71.601562 7.9375 -76.71875 11.375 -81.21875 C 14.457031 -85.28125 18.554688 -88.34375 23.671875 -90.40625 C 28.785156 -92.476562 34.035156 -93.515625 39.421875 -93.515625 C 44.179688 -93.515625 48.832031 -92.65625 53.375 -90.9375 C 57.914062 -89.21875 61.773438 -86.570312 64.953125 -83 C 68.128906 -79.4375 70.113281 -74.832031 70.90625 -69.1875 Z M 57.671875 -68.65625 "/></g></g></g><g fill="#004aad" fill-opacity="1"><g transform="translate(225.907122, 229.930457)"><g><path d="M 49.875 -93.515625 C 54.988281 -93.515625 59.414062 -92.347656 63.15625 -90.015625 C 66.90625 -87.679688 69.796875 -84.660156 71.828125 -80.953125 C 73.859375 -77.253906 74.875 -73.332031 74.875 -69.1875 C 74.875 -65.832031 74.125 -62.546875 72.625 -59.328125 C 71.125 -56.109375 68.785156 -53.304688 65.609375 -50.921875 C 70.898438 -48.722656 74.625 -45.441406 76.78125 -41.078125 C 78.945312 -36.710938 80.03125 -32.320312 80.03125 -27.90625 C 80.03125 -23.320312 79.015625 -18.890625 76.984375 -14.609375 C 74.953125 -10.335938 71.953125 -6.832031 67.984375 -4.09375 C 64.023438 -1.363281 59.085938 0 53.171875 0 L 11.375 0 L 11.375 -93.515625 Z M 49.609375 -55.6875 C 53.304688 -55.6875 56.125 -57.050781 58.0625 -59.78125 C 60.007812 -62.519531 60.984375 -65.476562 60.984375 -68.65625 C 60.984375 -71.738281 60.078125 -74.535156 58.265625 -77.046875 C 56.460938 -79.566406 53.664062 -80.828125 49.875 -80.828125 L 24.609375 -80.828125 L 24.609375 -55.6875 Z M 53.171875 -12.96875 C 56.171875 -12.96875 58.660156 -13.691406 60.640625 -15.140625 C 62.628906 -16.597656 64.128906 -18.472656 65.140625 -20.765625 C 66.160156 -23.054688 66.671875 -25.394531 66.671875 -27.78125 C 66.671875 -30.25 66.160156 -32.582031 65.140625 -34.78125 C 64.128906 -36.988281 62.628906 -38.820312 60.640625 -40.28125 C 58.660156 -41.738281 56.171875 -42.46875 53.171875 -42.46875 L 24.609375 -42.46875 L 24.609375 -12.96875 Z M 53.171875 -12.96875 "/></g></g></g><path stroke-linecap="butt" transform="matrix(0, -0.75, 0.75, 0, 181.746307, 262.476544)" fill="none" stroke-linejoin="miter" d="M -0.0000241813 8.499716 L 199.937489 8.499716 " stroke="#004aad" stroke-width="17" stroke-opacity="1" stroke-miterlimit="4"/></svg>