{"asset":{"version":"2.0","generator":"VECTARY"},"nodes":[{"translation":[0,0,0],"scale":[1,1,1],"rotation":[0,0.7071067811865475,0,0.7071067811865476],"name":"Armature","children":[1,2,3,4,5,6,7]},{"translation":[0,0,0],"scale":[1,1,1],"rotation":[0,0,0,1],"name":"EyeLeft","mesh":0},{"translation":[0,0,0],"scale":[1,1,1],"rotation":[0,0,0,1],"name":"EyeRight","mesh":1},{"translation":[0,0,0],"scale":[1,1,1],"rotation":[0,0,0,1],"name":"Wolf3D_Head","mesh":2},{"translation":[0,0,0],"scale":[1,1,1],"rotation":[0,0,0,1],"name":"Wolf3D_Teeth","mesh":3},{"translation":[0,0,0],"scale":[1,1,1],"rotation":[0,0,0,1],"name":"Wolf3D_Body","mesh":4},{"translation":[0,0,0],"scale":[1,1,1],"rotation":[0,0,0,1],"name":"Wolf3D_Outfit_Top","mesh":5},{"translation":[0,0,0],"scale":[1,1,1],"rotation":[0,0,0,1],"name":"Wolf3D_Hair","mesh":6}],"materials":[{"pbrMetallicRoughness":{"baseColorFactor":[1,1,1,1],"baseColorTexture":{"index":0,"extensions":{"KHR_texture_transform":{"offset":[0,0],"scale":[1,1],"rotation":0}},"texCoord":0},"metallicFactor":0,"roughnessFactor":1},"name":"Wolf3D_Eye","emissiveFactor":[0,0,0],"extensions":{},"alphaMode":"OPAQUE","doubleSided":true},{"pbrMetallicRoughness":{"baseColorFactor":[1,1,1,1],"baseColorTexture":{"index":0,"extensions":{"KHR_texture_transform":{"offset":[0,0],"scale":[1,1],"rotation":0}},"texCoord":0},"metallicFactor":0,"roughnessFactor":1},"name":"Wolf3D_Eye 1","emissiveFactor":[0,0,0],"extensions":{},"alphaMode":"OPAQUE","doubleSided":true},{"pbrMetallicRoughness":{"baseColorFactor":[1,1,1,1],"baseColorTexture":{"index":1,"extensions":{"KHR_texture_transform":{"offset":[0,0],"scale":[1,1],"rotation":0}},"texCoord":0},"metallicFactor":0,"roughnessFactor":0.699999988079071},"name":"Wolf3D_Skin","emissiveFactor":[0,0,0],"extensions":{},"alphaMode":"OPAQUE","doubleSided":true},{"pbrMetallicRoughness":{"baseColorFactor":[1,1,1,1],"baseColorTexture":{"index":2,"extensions":{"KHR_texture_transform":{"offset":[0,0],"scale":[1,1],"rotation":0}},"texCoord":0},"metallicFactor":0,"roughnessFactor":1},"name":"Wolf3D_Teeth","emissiveFactor":[0,0,0],"extensions":{},"alphaMode":"OPAQUE","doubleSided":true},{"pbrMetallicRoughness":{"baseColorFactor":[1,1,1,1],"baseColorTexture":{"index":3,"extensions":{"KHR_texture_transform":{"offset":[0,0],"scale":[1,1],"rotation":0}},"texCoord":0},"metallicFactor":0,"roughnessFactor":0.6982409358024597},"name":"Wolf3D_Body","normalTexture":{"index":4,"scale":1,"extensions":{"KHR_texture_transform":{"offset":[0,0],"scale":[1,1],"rotation":0}},"texCoord":0},"emissiveFactor":[0,0,0],"extensions":{},"alphaMode":"OPAQUE","doubleSided":false},{"pbrMetallicRoughness":{"baseColorFactor":[1,1,1,1],"baseColorTexture":{"index":5,"extensions":{"KHR_texture_transform":{"offset":[0,0],"scale":[1,1],"rotation":0}},"texCoord":0},"metallicRoughnessTexture":{"index":7,"extensions":{"KHR_texture_transform":{"offset":[0,0],"scale":[1,1],"rotation":0}},"texCoord":0},"metallicFactor":1,"roughnessFactor":1},"name":"Wolf3D_Outfit_Top","normalTexture":{"index":6,"scale":1,"extensions":{"KHR_texture_transform":{"offset":[0,0],"scale":[1,1],"rotation":0}},"texCoord":0},"emissiveFactor":[0,0,0],"extensions":{},"alphaMode":"OPAQUE","doubleSided":false},{"pbrMetallicRoughness":{"baseColorFactor":[1,1,1,1],"baseColorTexture":{"index":8,"extensions":{"KHR_texture_transform":{"offset":[0,0],"scale":[1,1],"rotation":0}},"texCoord":0},"metallicFactor":0,"roughnessFactor":0.7272727489471436},"name":"Wolf3D_Hair","normalTexture":{"index":9,"scale":1,"extensions":{"KHR_texture_transform":{"offset":[0,0],"scale":[1,1],"rotation":0}},"texCoord":0},"emissiveFactor":[0,0,0],"extensions":{},"alphaMode":"OPAQUE","doubleSided":false}],"textures":[{"sampler":0,"source":0},{"sampler":0,"source":1},{"sampler":0,"source":2},{"sampler":0,"source":3},{"sampler":0,"source":4},{"sampler":0,"source":5},{"sampler":0,"source":6},{"sampler":0,"source":7},{"sampler":0,"source":8},{"sampler":0,"source":9}],"images":[{"uri":"Gltf_Import_1.jpg","mimeType":"image/jpeg"},{"uri":"Gltf_Import_3.jpg","mimeType":"image/jpeg"},{"uri":"Gltf_Import_4.jpg","mimeType":"image/jpeg"},{"uri":"Gltf_Import_2.jpg","mimeType":"image/jpeg"},{"uri":"Gltf_Import_5.jpg","mimeType":"image/jpeg"},{"uri":"Gltf_Import_6.jpg","mimeType":"image/jpeg"},{"uri":"Gltf_Import_7.jpg","mimeType":"image/jpeg"},{"uri":"Gltf_Import.png","mimeType":"image/png"},{"uri":"Gltf_Import_8.jpg","mimeType":"image/jpeg"},{"uri":"Gltf_Import_9.jpg","mimeType":"image/jpeg"}],"samplers":[{"wrapS":10497,"wrapT":10497}],"meshes":[{"primitives":[{"mode":4,"attributes":{"POSITION":1,"NORMAL":2,"TEXCOORD_0":3},"material":0,"indices":0}]},{"primitives":[{"mode":4,"attributes":{"POSITION":5,"NORMAL":6,"TEXCOORD_0":7},"material":1,"indices":4}]},{"primitives":[{"mode":4,"attributes":{"POSITION":9,"NORMAL":10,"TEXCOORD_0":11},"material":2,"indices":8}]},{"primitives":[{"mode":4,"attributes":{"POSITION":13,"NORMAL":14,"TEXCOORD_0":15},"material":3,"indices":12}]},{"primitives":[{"mode":4,"attributes":{"POSITION":17,"NORMAL":18,"TEXCOORD_0":19},"material":4,"indices":16}]},{"primitives":[{"mode":4,"attributes":{"POSITION":21,"NORMAL":22,"TEXCOORD_0":23},"material":5,"indices":20}]},{"primitives":[{"mode":4,"attributes":{"POSITION":25,"NORMAL":26,"TEXCOORD_0":27},"material":6,"indices":24}]}],"accessors":[{"bufferView":0,"byteOffset":0,"componentType":5125,"count":618,"type":"SCALAR"},{"bufferView":1,"byteOffset":0,"componentType":5126,"count":120,"max":[0.04940388351678848,1.7445954084396362,0.10752135515213013],"min":[0.011137742549180984,1.7063877582550049,0.08850269019603729],"type":"VEC3"},{"bufferView":2,"byteOffset":0,"componentType":5126,"count":120,"type":"VEC3"},{"bufferView":3,"byteOffset":0,"componentType":5126,"count":120,"type":"VEC2"},{"bufferView":4,"byteOffset":0,"componentType":5125,"count":618,"type":"SCALAR"},{"bufferView":5,"byteOffset":0,"componentType":5126,"count":120,"max":[-0.011405082419514656,1.744634985923767,0.10752139985561371],"min":[-0.04951910674571991,1.7063486576080322,0.08850274235010147],"type":"VEC3"},{"bufferView":6,"byteOffset":0,"componentType":5126,"count":120,"type":"VEC3"},{"bufferView":7,"byteOffset":0,"componentType":5126,"count":120,"type":"VEC2"},{"bufferView":8,"byteOffset":0,"componentType":5125,"count":12282,"type":"SCALAR"},{"bufferView":9,"byteOffset":0,"componentType":5126,"count":2162,"max":[0.09579432010650635,1.8330841064453125,0.14342422783374786],"min":[-0.09610731154680252,1.5206059217453003,-0.0865776538848877],"type":"VEC3"},{"bufferView":10,"byteOffset":0,"componentType":5126,"count":2162,"type":"VEC3"},{"bufferView":11,"byteOffset":0,"componentType":5126,"count":2162,"type":"VEC2"},{"bufferView":12,"byteOffset":0,"componentType":5125,"count":300,"type":"SCALAR"},{"bufferView":13,"byteOffset":0,"componentType":5126,"count":84,"max":[0.028115352615714073,1.6774636507034302,0.11987791955471039],"min":[-0.028115352615714073,1.6403120756149292,0.05242489278316498],"type":"VEC3"},{"bufferView":14,"byteOffset":0,"componentType":5126,"count":84,"type":"VEC3"},{"bufferView":15,"byteOffset":0,"componentType":5126,"count":84,"type":"VEC2"},{"bufferView":16,"byteOffset":0,"componentType":5125,"count":4338,"type":"SCALAR"},{"bufferView":17,"byteOffset":0,"componentType":5126,"count":3603,"max":[0.5314635038375854,1.1030899286270142,0.14859214425086975],"min":[-0.5314705967903137,0.8878023028373718,-0.01226070336997509],"type":"VEC3"},{"bufferView":18,"byteOffset":0,"componentType":5126,"count":3603,"type":"VEC3"},{"bufferView":19,"byteOffset":0,"componentType":5126,"count":3603,"type":"VEC2"},{"bufferView":20,"byteOffset":0,"componentType":5125,"count":7722,"type":"SCALAR"},{"bufferView":21,"byteOffset":0,"componentType":5126,"count":1510,"max":[0.46988755464553833,1.6521693468093872,0.16343297064304352],"min":[-0.4703596234321594,1.002012848854065,-0.20412492752075195],"type":"VEC3"},{"bufferView":22,"byteOffset":0,"componentType":5126,"count":1510,"type":"VEC3"},{"bufferView":23,"byteOffset":0,"componentType":5126,"count":1510,"type":"VEC2"},{"bufferView":24,"byteOffset":0,"componentType":5125,"count":1617,"type":"SCALAR"},{"bufferView":25,"byteOffset":0,"componentType":5126,"count":297,"max":[0.08589793741703033,1.8564337491989136,0.11455122381448746],"min":[-0.08543866127729416,1.6595169305801392,-0.08862046152353287],"type":"VEC3"},{"bufferView":26,"byteOffset":0,"componentType":5126,"count":297,"type":"VEC3"},{"bufferView":27,"byteOffset":0,"componentType":5126,"count":297,"type":"VEC2"}],"bufferViews":[{"buffer":0,"byteOffset":0,"byteLength":2472,"target":34963},{"buffer":0,"byteOffset":2472,"byteLength":1440,"target":34962},{"buffer":0,"byteOffset":3912,"byteLength":1440,"target":34962},{"buffer":0,"byteOffset":5352,"byteLength":960,"target":34962},{"buffer":0,"byteOffset":6312,"byteLength":2472,"target":34963},{"buffer":0,"byteOffset":8784,"byteLength":1440,"target":34962},{"buffer":0,"byteOffset":10224,"byteLength":1440,"target":34962},{"buffer":0,"byteOffset":11664,"byteLength":960,"target":34962},{"buffer":0,"byteOffset":12624,"byteLength":49128,"target":34963},{"buffer":0,"byteOffset":61752,"byteLength":25944,"target":34962},{"buffer":0,"byteOffset":87696,"byteLength":25944,"target":34962},{"buffer":0,"byteOffset":113640,"byteLength":17296,"target":34962},{"buffer":0,"byteOffset":130936,"byteLength":1200,"target":34963},{"buffer":0,"byteOffset":132136,"byteLength":1008,"target":34962},{"buffer":0,"byteOffset":133144,"byteLength":1008,"target":34962},{"buffer":0,"byteOffset":134152,"byteLength":672,"target":34962},{"buffer":0,"byteOffset":134824,"byteLength":17352,"target":34963},{"buffer":0,"byteOffset":152176,"byteLength":43236,"target":34962},{"buffer":0,"byteOffset":195412,"byteLength":43236,"target":34962},{"buffer":0,"byteOffset":238648,"byteLength":28824,"target":34962},{"buffer":0,"byteOffset":267472,"byteLength":30888,"target":34963},{"buffer":0,"byteOffset":298360,"byteLength":18120,"target":34962},{"buffer":0,"byteOffset":316480,"byteLength":18120,"target":34962},{"buffer":0,"byteOffset":334600,"byteLength":12080,"target":34962},{"buffer":0,"byteOffset":346680,"byteLength":6468,"target":34963},{"buffer":0,"byteOffset":353148,"byteLength":3564,"target":34962},{"buffer":0,"byteOffset":356712,"byteLength":3564,"target":34962},{"buffer":0,"byteOffset":360276,"byteLength":2376,"target":34962}],"scene":0,"scenes":[{"nodes":[0],"name":"Project Name"}],"extensionsUsed":["KHR_texture_transform"],"buffers":[{"byteLength":362652,"uri":"ProjectName.bin"}]}